<svg width="64" height="64" viewBox="0 0 64 64" fill="none" xmlns="http://www.w3.org/2000/svg">
<path fill-rule="evenodd" clip-rule="evenodd" d="M32.6139 6.0007C46.6894 6.32749 57.9995 17.846 57.9995 32C57.9995 46.3722 46.3819 58.0271 31.9958 58C17.5974 57.973 5.84018 46.1406 5.99965 31.7286C6.06472 25.4259 8.41877 19.3618 12.6233 14.6659C13.3601 13.843 14.6245 13.7732 15.4474 14.51C16.2703 15.2468 16.3401 16.5112 15.6033 17.3341C12.046 21.3072 10.0543 26.438 9.99943 31.7706L9.99941 31.7722C9.86432 43.9474 19.8144 53.9771 32.0033 54C44.1672 54.0229 53.9995 44.1704 53.9995 32C53.9995 20.5228 45.2105 11.0937 33.9995 10.0832V19C33.9995 20.1046 33.1041 21 31.9995 21C30.895 21 29.9995 20.1046 29.9995 19V8.54826C29.9991 8.20779 30.0669 7.87069 30.1991 7.55692C30.3317 7.24201 30.5264 6.95704 30.7715 6.71899C31.0166 6.48095 31.3072 6.2947 31.6259 6.17135C31.9407 6.04949 32.2766 5.9915 32.6139 6.0007Z" fill="#7001E4"/>
<path d="M20.085 19.6077C20.1755 19.5997 20.2662 19.6158 20.3477 19.6536L20.4258 19.6985L34.5449 29.5686V29.5696C35.3046 30.1167 35.8188 30.9406 35.9756 31.8635C36.1323 32.7866 35.9194 33.735 35.3828 34.5022C34.8462 35.2695 34.0282 35.7946 33.1074 35.9641C32.2443 36.1228 31.3553 35.9567 30.6094 35.5022L30.4619 35.4075C30.1217 35.171 29.8241 34.8785 29.582 34.5422L19.707 20.4172C19.6377 20.3179 19.6056 20.1971 19.6162 20.0764C19.6269 19.9557 19.6799 19.8428 19.7656 19.7571C19.8513 19.6714 19.9643 19.6184 20.085 19.6077Z" fill="#7001E4" stroke="#7E22CE"/>
</svg>
