<svg width="252" height="82" viewBox="0 0 252 82" fill="none" xmlns="http://www.w3.org/2000/svg">
<path d="M19.1586 18.3065C22.6228 18.6752 28.3262 21.6246 29.6994 24.9541C30.9529 27.9886 27.8476 30.4559 25.238 28.6863C23.4945 27.5008 23.0387 26.1452 20.5887 25.215C16.7085 23.7459 9.95669 24.6421 8.80005 29.2591C7.4155 34.7893 15.8653 35.9748 19.4605 37.1489C27.3975 39.7467 34.1436 44.375 31.1694 53.8189C27.2721 66.2009 6.85712 66.5413 1.68926 55.2653C0.78902 53.3028 1.02833 50.7958 3.49545 50.2853C6.33293 49.7011 7.11352 52.435 8.6747 54.0061C12.9651 58.3112 22.5829 58.5267 25.0044 52.3499C28.3034 43.9383 13.2044 42.7415 8.34423 39.9055C-2.57265 33.5415 2.68067 19.5203 14.1274 18.3065C15.3126 18.1817 17.9734 18.1817 19.1586 18.3065Z" fill="#7001E4" stroke="#7001E4" stroke-width="0.75" stroke-miterlimit="10"/>
<path d="M250.784 44.7551V60.7275C249.462 65.0552 243.884 63.6316 244.539 59.179C230.562 71.5383 209.304 56.984 215.97 39.5539C222.135 23.4454 245.713 24.8577 250.14 41.3519L250.784 44.7494V44.7551ZM231.502 34.3299C224.169 35.0163 219.423 42.2424 221.395 49.219C223.691 57.3583 233.97 60.3872 240.465 54.8853C249.194 47.4833 243.194 33.2296 231.502 34.3299Z" fill="#7001E4" stroke="#7001E4" stroke-width="0.75" stroke-miterlimit="10"/>
<path d="M51.8977 26.6047C59.3846 26.3381 66.2333 30.7452 68.8884 37.6764C70.5692 42.0722 70.3356 47.2394 72.8483 51.2722C77.8054 59.2357 89.5256 55.651 90.2607 46.729C90.5797 42.8493 90.329 38.2096 90.443 34.1995C90.4886 32.6397 90.1866 30.127 90.4772 28.7373C91.0697 25.8389 96.4256 25.4249 96.8529 29.2138C96.0439 40.7393 100.688 55.9233 86.6654 61.0338C77.8054 64.2611 69.6918 60.943 66.011 52.3783C63.863 47.3756 64.4442 41.5731 61.0312 37.0468C57.6183 32.5206 51.8123 31.6074 46.8552 34.1428C34.9982 40.2061 42.2173 58.765 55.6696 54.8967C57.6525 54.3295 61.5041 51.5899 62.4329 55.0611C63.4414 58.8103 57.3847 61.3344 54.4503 61.5896C46.7982 62.2646 38.6904 58.1581 35.9782 50.8639C31.5853 39.0434 39.0379 27.0641 51.9034 26.6047H51.8977Z" fill="#7001E4" stroke="#7001E4" stroke-width="0.75" stroke-miterlimit="10"/>
<path d="M106.351 18.5218C107.69 18.3743 108.864 18.9983 109.434 20.1894C110.585 22.6 109.473 29.4291 109.85 32.4863C109.878 32.7359 109.946 33.0592 110.203 33.1726C110.368 33.2464 112.527 31.6809 112.978 31.4427C120.744 27.2737 129.74 31.1647 132.105 39.4742C133.962 46.014 132.698 53.8755 132.914 60.6308C132.475 63.8128 127.057 64.3176 126.681 59.9672C126.185 54.2668 128.202 42.9228 124.521 38.578C120.846 34.239 114.254 35.8328 111.462 40.2456C108.55 44.8513 110.357 54.2838 109.872 59.797C109.485 64.2439 104.032 64.1361 103.616 59.9672L103.628 21.6584C103.81 20.0816 104.659 18.7033 106.363 18.5218H106.351Z" fill="#7001E4" stroke="#7001E4" stroke-width="0.75" stroke-miterlimit="10"/>
<path d="M185.265 29.8657C197.937 28.6576 207.486 40.4611 203.167 52.4063C198.592 65.0606 181.556 67.3577 173.442 56.5923C165.665 46.2749 172.348 31.0966 185.265 29.8657ZM185.607 36.2184C181.134 36.7175 177.396 40.5518 176.673 44.8852C175.305 53.0813 183.732 59.5417 191.43 56.2406C202.489 51.4931 198.318 34.7947 185.607 36.2184Z" fill="#7001E4" stroke="#7001E4" stroke-width="0.75" stroke-miterlimit="10"/>
<path d="M164.429 58.6114C155.888 66.9606 141.17 64.1756 136.738 53.0925C131.405 39.7576 143.364 26.5305 157.341 30.4555C169.619 33.9098 173.471 49.7687 164.434 58.6114H164.429ZM151.096 36.2183C137.587 37.7384 139.501 58.1236 153.301 57.1253C167.198 56.1157 165.728 34.5734 151.096 36.2183Z" fill="#7001E4" stroke="#7001E4" stroke-width="0.75" stroke-miterlimit="10"/>
<path d="M207.731 19.3951C209.623 17.5233 213.161 18.7201 213.218 21.4881V59.9557C212.791 64.1586 207.407 64.0735 206.803 60.1315V21.8227C206.865 21.074 207.19 19.934 207.731 19.3951Z" fill="#7001E4" stroke="#7001E4" stroke-width="0.75" stroke-miterlimit="10"/>
</svg>
