<svg width="155" height="124" viewBox="0 0 155 124" fill="none" xmlns="http://www.w3.org/2000/svg">
<path d="M123.566 73.6218C123.085 73.1306 122.4 72.8826 121.519 72.8826H121.233C118.544 72.8826 116.007 73.4262 113.682 74.5039C111.675 75.4386 109.896 76.6737 108.374 78.1901V75.4862C108.374 74.7805 108.131 74.1605 107.64 73.655C107.145 73.1402 106.508 72.8826 105.755 72.8826C105.001 72.8826 104.393 73.1402 103.862 73.6456C103.333 74.1511 103.066 74.7758 103.066 75.4911V102.767C103.066 103.797 103.25 104.818 103.226 105.838C103.201 107.264 102.084 108.523 100.698 108.88C99.3469 109.229 98.054 108.809 97.1981 107.97C96.5467 107.331 96.1391 106.444 96.1391 105.471V103.387C96.2154 103.139 96.2544 102.872 96.2544 102.595V89.1673C96.2008 86.9307 95.7444 84.8421 94.8738 82.8774C94.0048 80.9223 92.8175 79.2153 91.3151 77.7751C89.8192 76.3254 88.0731 75.181 86.0705 74.3371C84.0775 73.4978 81.9335 73.0685 79.6533 73.0685C77.3734 73.0685 75.2295 73.5025 73.2072 74.3514C71.1849 75.2049 69.4153 76.3732 67.9034 77.8371C66.3963 79.3106 65.2053 81.0369 64.3303 83.0158C63.46 84.9995 63.0273 87.112 63.0273 89.3722C63.0273 91.6325 63.46 93.7403 64.3303 95.7097C65.2053 97.679 66.3963 99.4053 67.9034 100.888C69.4153 102.362 71.1849 103.535 73.2072 104.388C75.2295 105.242 77.3734 105.666 79.6533 105.666C81.9335 105.666 83.9313 105.233 85.8609 104.36C87.7905 103.487 89.5025 102.338 90.9854 100.912L91.0244 102.61C91.0244 102.829 91.0438 103.039 91.0974 103.244V105.266C91.0974 109.534 94.6172 113.535 98.9522 113.916C104.086 114.364 108.404 110.397 108.404 105.461V103.015C108.418 102.905 108.423 102.801 108.423 102.681V89.9493C108.516 88.5091 108.855 87.1405 109.419 85.8673C110.104 84.3176 111.038 82.9443 112.199 81.7998C113.358 80.6506 114.733 79.735 116.289 79.0722C117.839 78.4142 119.507 78.0803 121.243 78.0803H121.529C122.302 78.0803 122.958 77.8324 123.488 77.3555C124.029 76.8691 124.295 76.2301 124.295 75.4576C124.295 74.6851 124.051 74.0986 123.571 73.6075L123.566 73.6218ZM90.1391 93.6974C89.556 95.0421 88.7537 96.2247 87.7288 97.2452C86.7072 98.2657 85.502 99.0619 84.1116 99.658C82.731 100.249 81.2335 100.55 79.6242 100.55C78.0151 100.55 76.5567 100.254 75.1759 99.658C73.7905 99.0572 72.585 98.2608 71.5542 97.2452C70.5334 96.2247 69.7216 95.0468 69.1284 93.6974C68.5354 92.3478 68.2388 90.9078 68.2388 89.3771C68.2388 87.8463 68.5354 86.3681 69.1284 85.0138C69.7216 83.6548 70.5334 82.4722 71.5542 81.466C72.5801 80.4646 73.7856 79.6683 75.1759 79.0818C76.5567 78.5047 78.0393 78.2139 79.6242 78.2139C81.2091 78.2139 82.7262 78.5047 84.1116 79.0818C85.4971 79.6683 86.7023 80.4646 87.7288 81.466C89.6584 83.3592 91.0097 86.7067 91.0097 89.3771C91.0097 90.9078 90.7222 92.3431 90.1391 93.6974Z" fill="#6F01E4"/>
<path d="M41.2639 93.4633C41.2639 95.5424 40.836 97.4546 39.995 99.1378C39.154 100.821 38.0068 102.29 36.5823 103.492C35.1579 104.698 33.4856 105.642 31.5994 106.295C29.7229 106.949 27.7249 107.283 25.6636 107.283C23.9476 107.283 22.2607 107.054 20.6613 106.601C19.0668 106.152 17.5743 105.528 16.2278 104.755C14.8763 103.983 13.6804 103.053 12.6742 101.994C11.6629 100.931 10.8753 99.7674 10.3357 98.5466C9.95178 97.7312 9.89331 97.0206 10.1801 96.4437C10.4572 95.8905 10.8656 95.4708 11.3907 95.1848C12.0081 94.8414 12.6061 94.7699 13.1699 94.9749C13.7096 95.1705 14.2589 95.6139 14.818 96.3102L14.847 96.3627C15.2846 97.2687 15.8922 98.1032 16.6459 98.8279C17.4042 99.5575 18.2743 100.192 19.2321 100.712C20.1898 101.231 21.2496 101.632 22.3726 101.908C24.672 102.471 27.1854 102.49 29.5965 101.77C30.8217 101.403 31.9398 100.85 32.9216 100.115C33.8941 99.3858 34.6961 98.4656 35.294 97.3879C35.892 96.3102 36.2031 95.0513 36.2031 93.6445C36.2031 92.3619 35.9018 91.2746 35.3135 90.4162C34.7156 89.5435 33.8988 88.7853 32.9023 88.1559C31.8911 87.5217 30.7341 86.9733 29.4653 86.525C28.1721 86.072 26.8547 85.6237 25.547 85.2042C23.8359 84.8037 22.1051 84.2886 20.4232 83.6639C18.7265 83.0346 17.1952 82.2237 15.8583 81.2653C14.5116 80.2925 13.413 79.1148 12.5817 77.7652C11.7456 76.4014 11.3226 74.7658 11.3226 72.9203C11.3226 71.0749 11.7407 69.3392 12.5769 67.8322C13.4081 66.3397 14.5116 65.0475 15.868 64.008C17.2194 62.9683 18.7653 62.1625 20.462 61.5998C23.5295 60.5937 26.7964 60.5508 29.7812 61.1898C31.1132 61.4711 32.3772 61.9002 33.5488 62.4629C34.7156 63.0208 35.7899 63.7218 36.7379 64.5468C37.6907 65.3766 38.4978 66.354 39.1394 67.4603C39.4359 67.9421 39.504 68.4475 39.3387 68.953C39.1832 69.425 38.9596 69.8065 38.6678 70.0927C38.2839 70.4455 37.7929 70.6506 37.1948 70.7174C36.5823 70.7793 35.994 70.6029 35.4398 70.1832L35.3913 70.1403C34.0349 68.5094 32.562 67.3507 31.0258 66.7021C29.4848 66.0488 27.7006 65.7151 25.7317 65.7151C24.633 65.7151 23.5198 65.8725 22.4212 66.1824C21.3274 66.4924 20.3162 66.9501 19.4168 67.5415C18.5321 68.1327 17.7882 68.8862 17.2243 69.7779C16.6652 70.6649 16.3784 71.7091 16.3784 72.8774C16.3784 74.0457 16.7139 75.1377 17.3701 75.9484C18.0362 76.7782 18.9015 77.4886 19.9371 78.0561C20.9823 78.6331 22.1441 79.1052 23.3934 79.4629C24.6379 79.8205 25.8631 80.1494 27.02 80.4309C28.8089 80.9793 30.5688 81.6039 32.2557 82.2811C33.9621 82.9676 35.4935 83.8213 36.8157 84.818C38.1478 85.824 39.2318 87.0401 40.034 88.4229C40.8409 89.825 41.2541 91.5177 41.2541 93.4585L41.2639 93.4633Z" fill="#6F01E4"/>
<path d="M62.0082 75.5241C62.0082 76.249 61.7651 76.8594 61.2838 77.3314C60.8025 77.8035 60.1949 78.042 59.4802 78.042H54.9543V104.379C54.9543 105.061 54.7014 105.642 54.2104 106.119C53.7194 106.587 53.1216 106.825 52.4264 106.825C51.7312 106.825 51.138 106.587 50.6568 106.114C50.1755 105.642 49.9325 105.061 49.9325 104.379V78.042H46.233C45.5379 78.042 44.9398 77.794 44.4488 77.3171C43.9529 76.8308 43.7051 76.2347 43.7051 75.5241C43.7051 74.8137 43.9578 74.2604 44.4488 73.7884C44.9398 73.3163 45.5379 73.0778 46.233 73.0778H49.9325V63.5551C49.9325 62.8492 50.1755 62.2627 50.6617 61.8003C51.1429 61.3377 51.7361 61.1089 52.4264 61.1089C53.1167 61.1089 53.7146 61.3377 54.2104 61.7954C54.7063 62.258 54.9543 62.8492 54.9543 63.5551V73.0778H59.4802C60.1949 73.0778 60.8074 73.3163 61.2838 73.7884C61.7651 74.2604 62.0082 74.8422 62.0082 75.5241Z" fill="#6F01E4"/>
<path d="M144.812 75.5241C144.812 76.249 144.569 76.8594 144.088 77.3314C143.607 77.8035 143 78.042 142.285 78.042H137.758V104.379C137.758 105.061 137.505 105.642 137.014 106.119C136.524 106.587 135.926 106.825 135.231 106.825C134.536 106.825 133.943 106.587 133.46 106.114C132.98 105.642 132.736 105.061 132.736 104.379V78.042H129.038C128.343 78.042 127.743 77.794 127.253 77.3171C126.757 76.8308 126.509 76.2347 126.509 75.5241C126.509 74.8137 126.762 74.2604 127.253 73.7884C127.748 73.3163 128.347 73.0778 129.038 73.0778H132.736V63.5551C132.736 62.8492 132.98 62.2627 133.465 61.8003C133.948 61.3377 134.541 61.1089 135.231 61.1089C135.921 61.1089 136.519 61.3377 137.014 61.7954C137.51 62.258 137.758 62.8492 137.758 63.5551V73.0778H142.285C143 73.0778 143.612 73.3163 144.088 73.7884C144.569 74.2604 144.812 74.8422 144.812 75.5241Z" fill="#6F01E4"/>
<path d="M125.681 21.0962L121.014 45.0917C120.844 45.9785 120.285 46.7558 119.449 47.2709C118.546 47.8288 117.422 48.0052 116.45 47.7525C114.548 47.2566 113.411 45.3683 113.8 43.3701L115.229 36.0314C115.031 37.0519 113.017 38.7875 112.284 39.6268C111.082 41.0002 109.823 42.321 108.506 43.5847C103.304 48.5535 96.5373 52.8262 89.3127 54.1852C82.002 55.5634 74.3404 53.2125 69.6978 47.3758C66.324 43.1366 65.2788 36.2555 63.4316 30.1517C61.3022 23.1086 58.1083 17.0907 49.0419 17.3386C40.7143 17.5627 36.091 22.5125 34.7883 28.2776C34.1758 30.9958 34.2973 33.8903 35.1188 36.5607C36.271 40.3135 38.799 43.6229 42.5956 45.3634C44.5499 46.26 46.8347 46.7416 49.4404 46.6509C49.8488 46.6366 50.2961 46.5652 50.7676 46.4554C54.7734 45.5161 60.6265 41.7488 61.905 46.2169C63.0523 50.2177 55.6387 53.3985 52.3913 53.6894C52.2065 53.7037 52.0267 53.7179 51.842 53.7322C49.139 53.9372 46.6549 53.799 44.3943 53.3746C33.6458 51.3717 27.851 42.9792 27.0636 34.0953C26.8497 31.6825 27.0053 29.2314 27.5302 26.8662C29.4213 18.3114 36.1591 10.8391 47.773 10.0523C56.7617 9.44666 65.0114 14.1485 68.9832 21.8211C69.3332 22.4887 69.6444 23.1801 69.9215 23.8906C70.5874 25.5978 71.0882 27.6149 71.5841 29.7417C72.8091 35.0443 73.9855 40.9953 77.6267 44.3382C79.44 46.0024 81.8607 47.0229 85.205 46.9896C85.166 47.0372 85.1271 47.08 85.0897 47.1231C85.7215 47.1182 86.3533 47.0849 86.99 47.0229C92.1421 46.5078 97.7035 43.7039 102.648 39.1358C103.577 38.2774 104.496 37.3522 105.423 36.3462C106.099 35.6117 106.775 34.8345 107.46 34.0047C106.833 34.329 106.206 34.6436 105.579 34.9441C105.438 35.0156 105.293 35.0872 105.152 35.154C103.26 36.0647 101.155 35.5116 100.145 33.8379C99.6249 32.9843 99.4982 31.8685 99.8036 30.8576C100.086 29.9277 100.699 29.1932 101.52 28.7975C103.072 28.0488 104.593 27.2716 106.08 26.4561C110.904 23.8334 115.409 20.8578 119.527 17.5961C120.29 16.9905 121.195 16.6806 122.088 16.6806C122.756 16.6806 123.417 16.8522 124.009 17.2051C125.356 17.9967 125.998 19.494 125.681 21.1058V21.0962Z" fill="#6F01E4"/>
</svg>
