<svg width="353" height="125" viewBox="0 0 353 125" fill="none" xmlns="http://www.w3.org/2000/svg">
<path d="M146.037 75.8819C145.464 75.2959 144.648 75 143.599 75H143.258C140.053 75 137.03 75.6486 134.261 76.9344C131.869 78.0497 129.75 79.5233 127.937 81.3326V78.1065C127.937 77.2645 127.646 76.5247 127.062 75.9217C126.472 75.3073 125.713 75 124.815 75C123.917 75 123.193 75.3073 122.561 75.9104C121.93 76.5135 121.612 77.2588 121.612 78.1123V110.656C121.612 111.886 121.831 113.103 121.802 114.321C121.773 116.022 120.441 117.524 118.791 117.951C117.181 118.366 115.64 117.865 114.62 116.864C113.844 116.102 113.358 115.043 113.358 113.883V111.396C113.449 111.1 113.496 110.782 113.496 110.452V94.43C113.432 91.7614 112.888 89.2694 111.851 86.9253C110.816 84.5926 109.401 82.5558 107.611 80.8374C105.828 79.1078 103.748 77.7424 101.362 76.7354C98.9872 75.7341 96.4327 75.2219 93.7158 75.2219C90.9993 75.2219 88.4449 75.7397 86.0353 76.7525C83.6257 77.7708 81.5173 79.1648 79.7159 80.9115C77.9202 82.6696 76.5011 84.7292 75.4586 87.0904C74.4217 89.4572 73.9061 91.9777 73.9061 94.6745C73.9061 97.3713 74.4217 99.8862 75.4586 102.236C76.5011 104.586 77.9202 106.645 79.7159 108.415C81.5173 110.173 83.6257 111.573 86.0353 112.591C88.4449 113.61 90.9993 114.116 93.7158 114.116C96.4327 114.116 98.8131 113.598 101.112 112.557C103.411 111.516 105.451 110.144 107.218 108.443L107.264 110.469C107.264 110.731 107.288 110.981 107.351 111.225V113.638C107.351 118.73 111.545 123.504 116.71 123.959C122.828 124.494 127.972 119.76 127.972 113.871V110.952C127.989 110.822 127.995 110.696 127.995 110.554V95.3631C128.105 93.6447 128.51 92.0118 129.181 90.4926C129.998 88.6437 131.111 87.0051 132.494 85.6395C133.874 84.2684 135.513 83.176 137.367 82.3851C139.213 81.6 141.201 81.2016 143.27 81.2016H143.61C144.532 81.2016 145.313 80.9058 145.944 80.3369C146.589 79.7565 146.906 78.9941 146.906 78.0724C146.906 77.1507 146.616 76.4509 146.043 75.8649L146.037 75.8819ZM106.21 99.835C105.515 101.439 104.559 102.85 103.338 104.068C102.12 105.286 100.684 106.236 99.0279 106.947C97.3829 107.652 95.5986 108.011 93.6811 108.011C91.7639 108.011 90.0262 107.658 88.3811 106.947C86.7303 106.23 85.2939 105.28 84.0658 104.068C82.8495 102.85 81.8823 101.445 81.1755 99.835C80.4689 98.2248 80.1156 96.5066 80.1156 94.6803C80.1156 92.8538 80.4689 91.0901 81.1755 89.4743C81.8823 87.8528 82.8495 86.4418 84.0658 85.2412C85.2881 84.0465 86.7245 83.0963 88.3811 82.3965C90.0262 81.708 91.7927 81.3611 93.6811 81.3611C95.5696 81.3611 97.3771 81.708 99.0279 82.3965C100.679 83.0963 102.115 84.0465 103.338 85.2412C105.637 87.5001 107.247 91.4942 107.247 94.6803C107.247 96.5066 106.904 98.2192 106.21 99.835Z" fill="#6F01E4"/>
<path d="M47.9061 99.6604C47.9061 102.119 47.3998 104.38 46.4045 106.37C45.4091 108.36 44.0515 110.097 42.3657 111.518C40.6798 112.944 38.7007 114.061 36.4684 114.833C34.2477 115.605 31.8831 116 29.4436 116C27.4128 116 25.4163 115.729 23.5235 115.194C21.6364 114.664 19.8701 113.925 18.2766 113.012C16.6771 112.098 15.2617 110.999 14.0709 109.747C12.8741 108.49 11.942 107.114 11.3035 105.671C10.849 104.707 10.7798 103.867 11.1193 103.184C11.4473 102.53 11.9305 102.034 12.552 101.696C13.2826 101.29 13.9904 101.205 14.6576 101.448C15.2963 101.679 15.9464 102.203 16.6081 103.027L16.6425 103.089C17.1603 104.16 17.8794 105.147 18.7714 106.003C19.6689 106.866 20.6986 107.616 21.8321 108.231C22.9655 108.845 24.2197 109.319 25.5488 109.646C28.2701 110.311 31.2446 110.334 34.0981 109.482C35.5481 109.048 36.8713 108.394 38.0333 107.526C39.1842 106.663 40.1334 105.575 40.8409 104.301C41.5487 103.027 41.9168 101.538 41.9168 99.8747C41.9168 98.3581 41.5602 97.0726 40.864 96.0576C40.1564 95.0257 39.1897 94.1293 38.0105 93.3851C36.8137 92.6352 35.4444 91.9868 33.9428 91.4568C32.4123 90.9212 30.8532 90.3911 29.3056 89.8951C27.2805 89.4215 25.2322 88.8125 23.2417 88.0739C21.2337 87.3297 19.4215 86.371 17.8393 85.2378C16.2455 84.0876 14.9453 82.6951 13.9615 81.0994C12.972 79.4868 12.4714 77.5529 12.4714 75.3708C12.4714 73.1888 12.9662 71.1366 13.9558 69.3548C14.9396 67.5901 16.2455 66.0622 17.8508 64.8331C19.4501 63.6038 21.2797 62.6511 23.2877 61.9857C26.918 60.7961 30.7842 60.7454 34.3167 61.5009C35.8931 61.8336 37.389 62.3409 38.7755 63.0062C40.1564 63.6659 41.4278 64.4947 42.5498 65.4701C43.6774 66.4513 44.6326 67.607 45.3918 68.9151C45.7428 69.4847 45.8234 70.0823 45.6277 70.6799C45.4437 71.238 45.179 71.6891 44.8338 72.0275C44.3794 72.4446 43.7983 72.6872 43.0905 72.7661C42.3657 72.8393 41.6694 72.6307 41.0136 72.1345L40.9561 72.0838C39.3508 70.1555 37.6077 68.7854 35.7897 68.0186C33.9659 67.2462 31.8543 66.8515 29.5242 66.8515C28.224 66.8515 26.9065 67.0376 25.6063 67.404C24.3118 67.7707 23.115 68.3118 22.0507 69.0111C21.0036 69.7101 20.1233 70.601 19.4559 71.6553C18.7942 72.7041 18.4548 73.9388 18.4548 75.3201C18.4548 76.7015 18.8519 77.9927 19.6285 78.9512C20.4168 79.9323 21.4408 80.7723 22.6664 81.4433C23.9033 82.1255 25.2783 82.6837 26.7569 83.1066C28.2297 83.5295 29.6797 83.9184 31.0489 84.2512C33.166 84.8996 35.2488 85.6382 37.2452 86.4388C39.2647 87.2506 41.077 88.26 42.6419 89.4384C44.2183 90.6279 45.5012 92.0657 46.4506 93.7008C47.4056 95.3586 47.8946 97.36 47.8946 99.6548L47.9061 99.6604Z" fill="#6F01E4"/>
<path d="M72.9061 78.0273C72.9061 78.8835 72.6139 79.6045 72.0354 80.162C71.4569 80.7198 70.7266 81.0014 69.8676 81.0014H64.4275V112.11C64.4275 112.916 64.1235 113.603 63.5333 114.166C62.9432 114.718 62.2245 115 61.3889 115C60.5534 115 59.8404 114.718 59.2619 114.161C58.6835 113.603 58.3914 112.916 58.3914 112.11V81.0014H53.9447C53.1091 81.0014 52.3902 80.7084 51.8001 80.1452C51.204 79.5707 50.9061 78.8666 50.9061 78.0273C50.9061 77.1881 51.2099 76.5347 51.8001 75.9771C52.3902 75.4194 53.1091 75.1378 53.9447 75.1378H58.3914V63.8895C58.3914 63.0557 58.6835 62.3629 59.2678 61.8167C59.8462 61.2703 60.5592 61 61.3889 61C62.2187 61 62.9373 61.2703 63.5333 61.811C64.1294 62.3574 64.4275 63.0557 64.4275 63.8895V75.1378H69.8676C70.7266 75.1378 71.4628 75.4194 72.0354 75.9771C72.6139 76.5347 72.9061 77.2219 72.9061 78.0273Z" fill="#6F01E4"/>
<path d="M171.906 78.0273C171.906 78.8835 171.613 79.6045 171.035 80.162C170.458 80.7198 169.727 81.0014 168.868 81.0014H163.427V112.11C163.427 112.916 163.123 113.603 162.533 114.166C161.944 114.718 161.225 115 160.39 115C159.554 115 158.842 114.718 158.262 114.161C157.684 113.603 157.391 112.916 157.391 112.11V81.0014H152.946C152.11 81.0014 151.39 80.7084 150.8 80.1452C150.205 79.5707 149.906 78.8666 149.906 78.0273C149.906 77.1881 150.211 76.5347 150.8 75.9771C151.396 75.4194 152.116 75.1378 152.946 75.1378H157.391V63.8895C157.391 63.0557 157.684 62.3629 158.268 61.8167C158.847 61.2703 159.56 61 160.39 61C161.219 61 161.938 61.2703 162.533 61.811C163.129 62.3574 163.427 63.0557 163.427 63.8895V75.1378H168.868C169.727 75.1378 170.463 75.4194 171.035 75.9771C171.613 76.5347 171.906 77.2219 171.906 78.0273Z" fill="#6F01E4"/>
<path d="M148.811 13.1953L143.237 41.7301C143.033 42.7847 142.366 43.7091 141.367 44.3215C140.288 44.985 138.946 45.1948 137.786 44.8942C135.514 44.3045 134.156 42.059 134.619 39.6829L136.327 30.9558C136.09 32.1694 133.684 34.2334 132.809 35.2314C131.374 36.8646 129.87 38.4353 128.297 39.938C122.083 45.8468 114 50.9278 105.371 52.5439C96.6386 54.1828 87.4871 51.3871 81.9418 44.4463C77.9118 39.4051 76.6634 31.2224 74.457 23.9638C71.9135 15.5884 68.0986 8.43202 57.2691 8.7269C47.3222 8.99341 41.8 14.8795 40.2438 21.7353C39.5122 24.9676 39.6574 28.4097 40.6386 31.5853C42.0149 36.048 45.0344 39.9834 49.5694 42.0532C51.9036 43.1194 54.6328 43.6921 57.7452 43.5843C58.2329 43.5673 58.7672 43.4823 59.3304 43.3517C64.1152 42.2348 71.1065 37.7549 72.6335 43.0682C74.004 47.8258 65.1487 51.6083 61.2699 51.9542C61.0492 51.9712 60.8344 51.9882 60.6138 52.0052C57.3851 52.249 54.418 52.0846 51.7178 51.5799C38.8792 49.1982 31.9576 39.218 31.0171 28.6535C30.7615 25.7842 30.9474 22.8694 31.5744 20.0568C33.8333 9.88371 41.8812 0.997812 55.7535 0.0621578C66.4901 -0.658013 76.3441 4.93324 81.0881 14.0573C81.5062 14.8512 81.8779 15.6734 82.2089 16.5183C83.0043 18.5484 83.6025 20.9472 84.1948 23.4763C85.658 29.782 87.0632 36.8588 91.4124 40.834C93.5783 42.813 96.4698 44.0266 100.464 43.987C100.418 44.0436 100.371 44.0946 100.327 44.1458C101.081 44.14 101.836 44.1004 102.597 44.0266C108.75 43.4141 115.393 40.0798 121.299 34.6475C122.409 33.6267 123.507 32.5265 124.614 31.3301C125.421 30.4567 126.229 29.5325 127.047 28.5457C126.298 28.9314 125.549 29.3055 124.801 29.6629C124.632 29.7479 124.459 29.833 124.29 29.9124C122.03 30.9954 119.516 30.3377 118.309 28.3473C117.688 27.3323 117.537 26.0054 117.902 24.8032C118.239 23.6975 118.971 22.824 119.952 22.3535C121.805 21.4631 123.623 20.5389 125.398 19.5691C131.16 16.4503 136.542 12.9118 141.46 9.0331C142.372 8.31295 143.452 7.94434 144.519 7.94434C145.317 7.94434 146.106 8.14848 146.815 8.56811C148.423 9.50945 149.189 11.29 148.811 13.2067V13.1953Z" fill="#6F01E4"/>
</svg>
