<svg width="457" height="124" viewBox="0 0 457 124" fill="none" xmlns="http://www.w3.org/2000/svg">
<path d="M56.3762 77.7308C56.3762 93.4242 48.8916 100.819 35.8351 100.819C22.7788 100.819 15.2067 93.4242 15.2067 77.7308V41.2351H10V78.0087C10 96.2565 19.7706 105.563 35.74 105.563C51.7091 105.563 61.5746 96.2565 61.5746 78.0087V41.2351H56.3679V77.7308H56.3762Z" fill="#6301CB"/>
<path d="M99.9012 71H76.2568V75.4753H99.9012V71Z" fill="#6301CB"/>
<path d="M120.013 41.2351H114.807V105.103H156.524V100.445H120.013V41.2351Z" fill="#6301CB"/>
<path d="M214.421 99.8103H171.426V104.468H214.421V99.8103Z" fill="#6301CB"/>
<path d="M214.197 40.7195H171.202V45.377H214.197V40.7195Z" fill="#6301CB"/>
<path d="M214.197 70.8301H171.202V75.4876H214.197V70.8301Z" fill="#6301CB"/>
<path d="M251.07 41.7285L221.671 105.596H227.243L253.625 47.3843L280.001 105.596H285.659L256.268 41.7285H251.07Z" fill="#6301CB"/>
<path d="M345.998 63.3471C345.998 49.7479 336.227 41.72 320.163 41.72H296.979V46.3775H320.163C333.491 46.3775 340.705 52.5802 340.705 63.3471C340.705 74.1139 333.491 80.3188 320.163 80.3188H296.979V105.596H302.186V84.8808H320.172C322.275 84.8808 324.187 84.6985 326.012 84.5162L341.076 105.596H347.005L331.125 83.3334C340.529 80.5078 346.007 73.4781 346.007 63.3471H345.998Z" fill="#6301CB"/>
<path d="M409.979 58.389V96.1074L367.167 41.7285H362.785V105.596H367.992V51.217L410.804 105.596H415.185V58.4201C413.614 59.0626 411.946 59.1893 409.988 58.389H409.979Z" fill="#6301CB"/>
<path d="M444.529 29.0009C434.1 25.6217 423.686 22.2246 413.255 18.861C412.835 18.7276 412.295 18.7187 411.875 18.861C401.381 22.2491 390.906 25.6683 380.421 29.0809C379.652 29.3344 379.278 29.7546 379.278 30.3904C379.278 31.024 379.652 31.4442 380.421 31.6976C385.31 33.2939 390.199 34.8879 395.096 36.4663C395.516 36.602 395.668 36.7598 395.659 37.22C395.636 39.9901 395.668 42.7668 395.636 45.5347C395.628 46.3684 395.93 46.9086 396.635 47.3354C399.334 48.9628 402.159 50.2967 405.167 51.2394C406.748 51.7396 408.351 52.1197 409.969 52.3198V49.9633C411.621 50.6769 413.422 50.6925 415.169 50.2323V52.2709C420.034 51.6373 424.456 49.7409 428.637 47.2021C429.193 46.8686 429.44 46.4084 429.431 45.757C429.415 42.9647 429.431 40.1724 429.431 37.3801V36.6664C431.178 36.1017 432.868 35.5548 434.615 34.9923V47.4711C431.234 49.343 431.114 52.3109 434.32 54.8187C434.273 55.0254 434.233 55.23 434.177 55.4456C433.066 59.912 431.948 64.3783 430.836 68.8447C430.558 69.9652 431.107 70.6699 432.257 70.6699C434.702 70.6699 437.154 70.6699 439.6 70.6699C440.758 70.6699 441.314 69.9718 441.036 68.8536C440.353 66.108 439.662 63.3557 438.98 60.6101C438.495 58.667 438.012 56.7217 437.528 54.7875C440.82 52.9934 440.434 48.7894 437.265 47.4866C437.259 47.4244 437.241 47.3599 437.241 47.2977C437.241 43.0514 437.241 38.8074 437.225 34.57C437.225 34.1654 437.417 34.072 437.735 33.9675C439.98 33.2538 442.219 32.5068 444.455 31.7932C445.036 31.6109 445.511 31.333 445.814 30.7861V30.008C445.52 29.4922 445.091 29.2077 444.52 29.0254L444.529 29.0009ZM425.678 45.9393C422.359 47.6689 418.94 49.074 415.216 49.6542C412.017 50.1522 408.931 49.6853 405.883 48.716C403.36 47.9157 400.961 46.8219 398.684 45.4791C398.5 45.3679 398.28 45.1145 398.271 44.9322C398.246 42.4889 398.255 40.0456 398.255 37.4979C400.668 38.276 402.986 39.0297 405.312 39.7833C407.51 40.497 409.7 41.2439 411.915 41.9176C412.35 42.0532 412.906 42.0198 413.351 41.8775C417.653 40.5058 421.948 39.1008 426.241 37.7046C426.423 37.6491 426.605 37.6024 426.852 37.5379V42.958C426.852 43.3071 426.797 43.6628 426.861 43.9962C427.066 45.0367 426.543 45.5124 425.678 45.9548V45.9393ZM438.17 68.0043H433.726C434.449 65.132 435.153 62.2841 435.869 59.4429C435.916 59.4429 435.972 59.4273 436.018 59.4207C436.734 62.2597 437.448 65.1075 438.17 68.0043ZM439.353 30.6905C430.663 33.5162 421.97 36.3485 413.273 39.1564C412.835 39.2986 412.279 39.292 411.852 39.1564C403.064 36.3329 394.294 33.4762 385.517 30.6194C385.356 30.5638 385.208 30.5015 385.047 30.4371C385.047 30.3904 385.047 30.3415 385.047 30.2948C387.144 29.6123 389.231 28.9386 391.326 28.2561C398.231 26.0107 405.136 23.7653 412.041 21.5355C412.328 21.4399 412.693 21.4087 412.971 21.4954C421.874 24.3678 430.774 27.2646 439.671 30.1592C439.804 30.2081 439.94 30.2637 440.218 30.3815C439.844 30.5171 439.6 30.6127 439.344 30.6905H439.353Z" fill="#00F886"/>
<path d="M435.846 71.0436C434.654 71.0436 433.465 71.0436 432.266 71.0436C431.393 71.0436 430.939 70.6879 430.71 70.3922C430.479 70.0987 430.25 69.5674 430.463 68.7182C431.17 65.8792 431.877 63.0468 432.582 60.2056L433.805 55.319C433.836 55.1923 433.869 55.0723 433.894 54.9455C432.288 53.6361 431.51 52.1777 431.621 50.7326C431.733 49.3676 432.631 48.1537 434.234 47.2178V35.5149L429.845 36.9356V39.6101C429.845 41.6487 429.845 43.6962 429.845 45.7349C429.845 46.5286 429.527 47.1155 428.86 47.5201C424.138 50.3836 419.685 52.0665 415.232 52.6445L414.781 52.7001V50.7082C413.231 51.0416 411.724 50.9705 410.375 50.5192V52.749L409.93 52.6935C408.367 52.4934 406.771 52.1377 405.057 51.5974C402.129 50.677 399.31 49.3832 396.437 47.6535C395.597 47.1466 395.23 46.4886 395.246 45.5126C395.264 44.012 395.264 42.5046 395.264 41.0062C395.264 39.7368 395.264 38.4673 395.27 37.1979C395.27 36.9511 395.27 36.92 394.977 36.8244C391.055 35.5639 387.136 34.2855 383.223 33.0094L380.302 32.0557C379.366 31.7556 378.888 31.1842 378.888 30.375C378.888 29.5568 379.366 28.9944 380.302 28.692L384.977 27.1691C393.899 24.2657 402.827 21.3622 411.755 18.4743C412.249 18.3142 412.876 18.3142 413.376 18.4743C419.71 20.5196 426.044 22.5761 432.368 24.6303C436.464 25.962 440.559 27.287 444.647 28.612C445.361 28.8432 445.845 29.2167 446.163 29.7792L446.21 29.8659V30.8507L446.163 30.9374C445.759 31.6911 445.067 31.9779 444.583 32.1357C443.362 32.5248 442.146 32.9205 440.925 33.3185C439.901 33.6519 438.878 33.9832 437.862 34.31C437.695 34.3656 437.655 34.3878 437.646 34.4056C437.646 34.4056 437.631 34.4367 437.631 34.539C437.646 37.8004 437.646 41.0685 437.646 44.3299V47.1866C439.163 47.8914 440.139 49.3054 440.225 50.9083C440.314 52.5423 439.487 54.0251 437.995 54.9455L439.996 62.9823C440.472 64.8943 440.948 66.8062 441.424 68.7182C441.63 69.5607 441.401 70.0832 441.179 70.3766C440.948 70.6701 440.488 71.028 439.607 71.028C438.353 71.028 437.091 71.028 435.837 71.028L435.846 71.0436ZM435.019 34.4212V47.678L434.814 47.7891C433.329 48.6073 432.495 49.6455 432.409 50.7882C432.313 52.0021 433.082 53.3026 434.574 54.4698L434.774 54.6276L434.678 55.0656C434.647 55.2079 434.614 55.3591 434.574 55.508L433.353 60.3968C432.646 63.2358 431.933 66.0703 431.232 68.9093C431.161 69.2117 431.115 69.623 431.337 69.9009C431.559 70.1788 431.964 70.2432 432.273 70.2432C434.718 70.2499 437.171 70.2432 439.616 70.2432C439.925 70.2432 440.345 70.1788 440.559 69.9009C440.774 69.623 440.734 69.2183 440.663 68.9249C440.187 67.0129 439.709 65.101 439.234 63.1891L437.084 54.5654L437.353 54.4231C438.733 53.6694 439.512 52.3755 439.432 50.9638C439.36 49.5899 438.471 48.3849 437.122 47.8358L436.917 47.7491L436.884 47.5268C436.862 47.4156 436.853 47.3445 436.853 47.2822V44.3454C436.853 41.0862 436.853 37.816 436.837 34.5546C436.837 33.8254 437.344 33.6675 437.622 33.5719C438.647 33.2473 439.663 32.9138 440.685 32.5804C441.908 32.1824 443.131 31.7867 444.354 31.3976C444.894 31.2309 445.218 31.0019 445.432 30.6595V30.0971C445.218 29.7547 444.894 29.5324 444.416 29.3745C440.321 28.0495 436.226 26.7156 432.137 25.3928C425.812 23.3364 419.479 21.2822 413.145 19.2346C412.805 19.1235 412.344 19.1235 412.011 19.2346C403.08 22.1225 394.159 25.026 385.23 27.9295L380.555 29.4546C379.793 29.6991 379.69 30.0637 379.69 30.3817C379.69 30.6996 379.793 31.0642 380.555 31.3109L383.476 32.2624C387.389 33.5408 391.311 34.8169 395.23 36.0797C395.835 36.2775 396.08 36.6021 396.073 37.2135C396.064 38.474 396.064 39.7435 396.064 41.0129C396.064 42.5202 396.064 44.0298 396.048 45.5282C396.042 46.2174 396.264 46.622 396.858 46.9799C399.677 48.6784 402.438 49.9478 405.304 50.8527C406.811 51.3284 408.225 51.6619 409.59 51.8598V50.0101C408.358 49.8211 407.089 49.5188 405.764 49.0986C403.287 48.3138 400.835 47.2111 398.485 45.8216C398.247 45.6793 397.883 45.3214 397.883 44.9324C397.858 42.9804 397.858 41.0307 397.867 39.0231V36.9511L400.653 37.8471C402.271 38.3718 403.858 38.8875 405.446 39.4033C406.088 39.6101 406.724 39.8235 407.367 40.0302C408.898 40.5371 410.479 41.0529 412.042 41.5287C412.375 41.6331 412.851 41.6176 413.24 41.4887C416.486 40.4593 419.725 39.3944 422.971 38.3406L426.13 37.3091C426.257 37.2691 426.393 37.2379 426.535 37.1979L427.264 37.0067V42.9426C427.264 43.0604 427.264 43.1716 427.257 43.2916C427.249 43.5139 427.233 43.7185 427.273 43.9008C427.542 45.2258 426.764 45.8372 425.883 46.2974C422.082 48.2805 418.805 49.4632 415.606 50.0034V51.8042C419.796 51.1862 424.012 49.5588 428.471 46.8443C428.9 46.5842 429.083 46.2574 429.074 45.7416C429.067 43.6963 429.067 41.6554 429.074 39.6101V36.3642L435.052 34.4278L435.019 34.4212ZM398.652 38.0316V39.0142C398.652 41.0129 398.652 42.9648 398.667 44.9168C398.683 44.9479 398.787 45.0768 398.883 45.1324C401.175 46.4886 403.574 47.5668 405.993 48.336C409.39 49.4076 412.295 49.7011 415.152 49.2564C418.36 48.7562 421.646 47.5913 425.494 45.5837C426.384 45.1146 426.615 44.759 426.47 44.052C426.415 43.7741 426.433 43.5051 426.439 43.2427C426.439 43.1405 426.448 43.036 426.448 42.9337V38.0316C426.448 38.0316 426.384 38.0472 426.353 38.0627L423.193 39.0943C419.954 40.1481 416.708 41.213 413.463 42.2445C412.922 42.4179 412.28 42.4335 411.789 42.2823C410.217 41.8066 408.629 41.2841 407.098 40.775C406.462 40.5705 405.819 40.3548 405.183 40.1481C403.596 39.6323 402.009 39.1165 400.399 38.5941L398.652 38.0316ZM438.678 68.4024H433.209L435.543 59.0873L436.312 58.9851L438.678 68.4091V68.4024ZM434.234 67.6088H437.662L435.939 60.7614L434.225 67.6088H434.234ZM412.567 39.6567C412.271 39.6567 411.986 39.6167 411.724 39.53C404.127 37.0867 396.549 34.619 388.961 32.1513L385.388 30.993C385.27 30.953 385.159 30.9063 385.039 30.8574L384.65 30.7085V30.0015L395.097 26.6067C400.699 24.7815 406.304 22.9629 411.915 21.1554C412.32 21.0287 412.756 21.0132 413.089 21.1154C421.415 23.8055 429.734 26.5111 438.06 29.2167L439.789 29.7792C439.885 29.8103 439.981 29.8503 440.114 29.9059L441.337 30.3972L440.012 30.873C439.814 30.9463 439.647 31.0086 439.472 31.0641L436.21 32.1269C428.607 34.6035 420.995 37.0778 413.383 39.53C413.129 39.61 412.842 39.6501 412.558 39.6501L412.567 39.6567ZM386.064 30.375L389.208 31.3976C396.795 33.8654 404.374 36.3242 411.971 38.7675C412.327 38.8875 412.805 38.8875 413.154 38.7675C420.764 36.3175 428.369 33.8409 435.972 31.3665L439.042 30.3661L437.813 29.9704C429.496 27.2648 421.17 24.5591 412.845 21.8691C412.669 21.8135 412.4 21.8291 412.153 21.9091C406.542 23.7188 400.937 25.5418 395.335 27.3603L386.055 30.375H386.064Z" fill="#00F886"/>
<path d="M409.978 49.9478V52.3043C411.305 52.4711 412.636 52.5177 413.995 52.3999C414.391 52.3666 414.789 52.3043 415.178 52.2554V50.2168C413.43 50.6859 411.62 50.6614 409.978 49.9478Z" fill="#00F886"/>
</svg>
