<svg width="353" height="124" viewBox="0 0 353 124" fill="none" xmlns="http://www.w3.org/2000/svg">
<path d="M10 67.1661V29.8215H15.2846V66.8899C15.2846 82.8321 22.8855 90.3319 36.2291 90.3319C49.5727 90.3319 57.0789 82.8244 57.0789 66.8899V29.8215H62.3637V67.1661C62.3637 85.7003 52.4471 95.1528 36.141 95.1528C19.8349 95.1528 10.0062 85.7003 10.0062 67.1661H10Z" fill="#6301CB"/>
<path d="M78.4814 71.9794V67.4424H102.482V71.9794H78.4814Z" fill="#6301CB"/>
<path d="M111.195 86.5346L113.511 82.4553C117.961 86.9923 126.208 90.5133 134.92 90.5133C147.617 90.5133 153.178 85.0473 153.178 78.1868C153.178 59.1871 112.871 70.6793 112.871 46.6791C112.871 37.5028 120.007 29.3501 136.131 29.3501C143.362 29.3501 150.868 31.4843 155.87 35.1869L153.925 39.4477C148.458 35.7393 141.968 33.9817 136.131 33.9817C123.804 33.9817 118.244 39.637 118.244 46.5844C118.244 65.5841 158.55 54.2735 158.55 77.9048C158.55 87.1681 151.138 95.1392 134.92 95.1392C125.286 95.1392 115.921 91.6181 111.195 86.521V86.5346Z" fill="#6301CB"/>
<path d="M169.201 94.6874H163.546L193.384 29.8215H198.668L228.507 94.6874H222.763L195.982 35.5637L169.201 94.6874Z" fill="#6301CB"/>
<path d="M239.999 29.8215H283.644V34.5478H239.999V29.8215ZM239.999 61.6055H279.565V66.3317H245.278V94.6874H239.991V61.6055H239.999Z" fill="#6301CB"/>
<path d="M298.562 28.7979H342.209V33.5241H298.562V28.7979ZM298.562 59.3824H342.209V64.1086H298.562V59.3824ZM298.562 94.6873H342.209V89.9611H298.562V94.6873Z" fill="#6301CB"/>
<path d="M200.031 69.4819C199.754 69.7446 199.49 70.0208 199.295 70.3279C199.183 70.4534 199.069 70.579 198.963 70.7045C198.354 71.4578 197.713 72.1995 197.143 72.9701C196.772 73.4723 196.326 73.9184 195.818 74.3337C195.573 74.4457 195.335 74.5597 195.154 74.7354C194.978 74.7914 194.777 74.8166 194.652 74.9479C194.468 74.9363 194.343 75.0368 194.211 75.1121C193.865 75.1797 193.527 75.2492 193.176 75.3129C191.588 75.5949 190.258 75.1681 189.089 74.3704C188.67 74.0884 188.311 73.7485 187.928 73.4414C187.897 73.3409 187.822 73.2791 187.696 73.254C187.584 73.0145 187.414 72.8021 187.208 72.6012C187.044 72.381 186.887 72.1608 186.723 71.9348C185.964 70.8127 185.135 69.7195 184.257 68.6533C184.1 68.4524 183.944 68.2458 183.779 68.0449L183.743 68.0198C183.648 67.9116 183.637 67.7552 183.441 67.7108C182.97 66.9401 182.261 66.2931 181.672 65.5842C181.539 65.4394 181.408 65.3022 181.271 65.1574C180.78 64.6359 180.291 64.1086 179.801 63.5871C179.744 63.4442 179.594 63.3689 179.443 63.2858C178.797 62.4012 177.861 61.6982 176.995 60.9526C176.594 60.6069 176.186 60.2612 175.778 59.9154C175.545 59.6585 175.32 59.4074 175.087 59.1506C174.673 58.5286 174.642 57.9086 175.094 57.2867C175.213 57.2558 175.288 57.1863 175.32 57.0974C175.677 56.8657 175.891 56.5334 176.286 56.3326C176.38 56.2688 176.481 56.207 176.575 56.1375C177.648 55.448 178.809 54.9207 180.222 54.7758C181.377 54.6561 182.412 54.9323 183.428 55.2973C183.712 55.4287 183.994 55.5542 184.276 55.6855C184.44 55.9173 184.778 55.9753 185.004 56.1433C185.035 56.1626 185.068 56.1684 185.099 56.1626C186.215 56.9294 187.283 57.7387 188.28 58.5924C188.475 58.7797 188.589 59.025 188.877 59.1506C189.021 59.3321 189.139 59.533 189.379 59.6585C189.46 59.8536 189.636 59.985 189.831 60.1105C190.244 60.6764 190.766 61.1844 191.268 61.6981C191.368 61.9241 191.532 62.1192 191.77 62.2757C191.808 62.4649 191.996 62.5828 192.135 62.7276C192.235 62.8725 192.297 63.0347 192.498 63.1236C192.512 63.2993 192.629 63.3747 192.768 63.2105C192.975 62.9594 193.257 62.7469 193.371 62.4514C193.622 62.3703 193.64 62.1385 193.823 62.0188C194.306 61.5166 194.783 61.0144 195.266 60.5122C195.453 60.2747 195.805 60.124 195.905 59.8285C195.98 59.7783 196.05 59.7223 196.125 59.6721C196.326 59.4828 196.527 59.2954 196.728 59.1061C196.898 58.9439 197.074 58.7855 197.244 58.6233C197.456 58.4862 197.657 58.3471 197.738 58.1346C198.974 57.1612 200.218 56.1877 201.443 55.2027C202.001 54.7565 202.704 54.4301 203.167 53.9163C203.351 53.9028 203.474 53.8159 203.569 53.7019C203.614 53.7019 203.639 53.6768 203.644 53.6401C203.901 53.476 204.16 53.3079 204.417 53.1438C204.604 53.024 204.794 52.8985 204.975 52.7806C205.226 52.6223 205.472 52.4658 205.723 52.3152C206.495 51.869 207.274 51.4248 208.044 50.9786C208.151 50.9535 208.22 50.9033 208.251 50.8144C208.66 50.6715 209.029 50.4899 209.35 50.2446C209.514 50.2253 209.645 50.1809 209.715 50.0554C210.304 49.8236 210.851 49.5474 211.384 49.2461C211.471 49.2094 211.56 49.1708 211.646 49.1341C212.023 48.9641 212.394 48.7941 212.771 48.6242C212.884 48.5739 212.991 48.5237 213.103 48.4735C214.723 47.7589 216.406 47.1447 218.063 46.4918L218.671 46.3084C219.517 46.0766 220.359 45.8506 221.205 45.6188C221.306 45.6304 221.4 45.6381 221.45 45.5493C222.493 45.3619 223.523 45.1476 224.57 44.9911C226.057 44.7709 227.552 44.601 229.064 44.8907C229.084 44.9409 229.114 44.9776 229.196 44.9602C229.955 45.2615 230.113 45.6439 229.792 46.3914C229.553 46.6097 229.315 46.8298 229.076 47.05C228.794 47.2374 228.512 47.4267 228.23 47.614C228.149 47.6526 228.066 47.6835 227.985 47.7202C227.909 47.7144 227.871 47.7473 227.865 47.8033C227.703 47.896 227.538 47.9849 227.382 48.0795C227.301 48.1162 227.226 48.1548 227.144 48.1915C226.86 48.3731 226.517 48.4928 226.291 48.7323C226.101 48.7246 226.014 48.825 225.939 48.939C225.568 49.0761 225.273 49.2963 224.96 49.4914C224.877 49.5474 224.796 49.6111 224.709 49.6671C224.394 49.7927 224.106 49.9433 223.867 50.15C223.648 50.2813 223.372 50.3567 223.222 50.5518C222.932 50.7082 222.644 50.8666 222.36 51.023C222.21 51.1408 222.059 51.2548 221.908 51.3746C221.551 51.4364 221.394 51.7184 221.087 51.8323C220.917 51.9579 220.747 52.0834 220.579 52.2089H220.585C220.404 52.2089 220.315 52.3036 220.245 52.4156C220.158 52.4716 220.064 52.5354 219.977 52.5914C219.625 52.6416 219.486 52.9062 219.249 53.0626C218.797 53.2577 218.445 53.5513 218.063 53.8159C217.817 53.9724 217.578 54.123 217.335 54.2795C217.058 54.4687 216.774 54.6503 216.498 54.8396C216.336 54.9709 216.172 55.1022 216.01 55.2336C215.909 55.3031 215.815 55.3649 215.714 55.4345C215.577 55.5098 215.438 55.5909 215.301 55.6662C213.46 56.9796 211.679 58.3355 209.947 59.7281C209.313 60.236 208.635 60.7266 208.125 61.3215C207.724 61.617 207.31 61.899 207.04 62.2814C206.068 63.0675 205.176 63.9077 204.373 64.8058C204.228 64.9256 204.009 64.9932 203.99 65.1883C203.67 65.3892 203.463 65.646 203.276 65.9222C203.142 66.0111 202.999 66.0922 202.936 66.2293C202.849 66.324 202.766 66.4186 202.679 66.5055C202.522 66.6562 202.339 66.7894 202.263 66.9768C201.869 67.3283 201.535 67.7107 201.222 68.1067C201.153 68.1202 201.108 68.1453 201.122 68.2013L200.38 69.0473C200.313 69.055 200.268 69.0802 200.28 69.1362C200.243 69.1922 200.212 69.2424 200.174 69.3003C200.031 69.3312 200.004 69.4124 200.011 69.5128L200.031 69.4819Z" fill="#00F886"/>
</svg>
