<svg width="441" height="124" viewBox="0 0 441 124" fill="none" xmlns="http://www.w3.org/2000/svg">
<path d="M112.076 81.8828L114.274 78.0405C118.501 82.3159 126.334 85.6342 134.618 85.6342C146.679 85.6342 151.962 80.4856 151.962 74.0236C151.962 56.1257 113.654 66.9539 113.654 44.3335C113.654 35.6849 120.431 28.0004 135.76 28.0004C142.628 28.0004 149.764 30.0124 154.512 33.5053L152.666 37.5222C147.468 34.0293 141.311 32.3666 135.76 32.3666C124.052 32.3666 118.768 37.6899 118.768 44.2427C118.768 62.1406 157.076 51.4941 157.076 73.7582C157.076 82.4906 150.032 90.0004 134.618 90.0004C125.461 90.0004 116.571 86.6821 112.076 81.8828Z" fill="#6301CB"/>
<path d="M216.108 56.3467V29.0004H221.076V89.0004H216.108V60.7147H176.038V89.0004H171.076V29.0004H176.038V56.3467H216.108Z" fill="#6301CB"/>
<path d="M237.381 89.0004H232.076L260.098 29.0004H265.055L293.076 89.0004H287.681L262.534 34.3147L237.388 89.0004H237.381Z" fill="#6301CB"/>
<path d="M352.062 89.0004H346.372L331.923 69.197C330.171 69.3684 328.335 69.5399 326.317 69.5399H309.065V89.0004H304.076V65.261H326.324C339.113 65.261 346.029 59.3501 346.029 49.3181C346.029 39.2861 339.106 33.3753 326.324 33.3753H304.076V29.0004H326.324C341.74 29.0004 351.116 36.5433 351.116 49.3113C351.116 58.829 345.861 65.4256 336.835 68.0861L352.076 89.0004H352.062Z" fill="#6301CB"/>
<path d="M420.829 85.5814C421.247 85.5674 421.443 85.051 421.136 84.7579C417.769 81.5548 414.583 78.5262 411.404 75.5115C411.139 75.2673 411.139 74.8556 411.404 74.6043C412.178 73.8716 412.882 73.2017 413.544 72.5736C413.802 72.3224 414.228 72.3224 414.486 72.5736C419.637 77.4794 424.803 82.4062 429.878 87.2422C430.142 87.4935 430.142 87.8912 429.878 88.1424C424.782 92.9994 419.623 97.9262 414.506 102.804C414.249 103.062 413.837 103.062 413.572 102.825C412.889 102.204 412.136 101.52 411.265 100.725C410.993 100.48 410.986 100.062 411.251 99.8103C414.304 96.8655 417.302 93.9624 420.306 91.0594C420.725 90.6547 420.453 90.0755 419.86 90.0755C415.127 90.0755 410.456 90.1173 405.695 90.0615H369.076V29.0004H409.857V33.013H373.524V57.0885H406.023V61.0174H373.524V86.0489L405.591 86.035L420.829 85.5814Z" fill="#6301CB"/>
<path d="M36.3398 89.7094C28.7859 89.7094 22.8223 87.5171 18.4699 83.1395C14.1035 78.7549 11.9273 72.2472 11.9273 63.6025V28.7611H16.3774V63.4227C16.3774 70.9747 18.1211 76.5626 21.6086 80.1934C25.0961 83.8241 30.0344 85.643 36.4305 85.643C42.8266 85.643 47.6742 83.831 51.1617 80.1934C54.6492 76.5557 56.3929 70.9747 56.3929 63.4227V28.7611H60.843V63.6025C60.843 72.2472 58.6668 78.7618 54.3004 83.1395C49.9411 87.5171 43.9565 89.7094 36.3398 89.7094Z" fill="#00F886"/>
<path d="M76.3624 68.0079V64.1212H98.7661V68.0079H76.3624Z" fill="#00F886"/>
</svg>
