<svg width="371" height="124" viewBox="0 0 371 124" fill="none" xmlns="http://www.w3.org/2000/svg">
<path d="M56.3762 66.2054C56.3762 81.8988 48.8916 89.2931 35.8351 89.2931C22.7788 89.2931 15.2067 81.8988 15.2067 66.2054V29.7097H10V66.4833C10 84.7311 19.7706 94.0374 35.74 94.0374C51.7091 94.0374 61.5746 84.7311 61.5746 66.4833V29.7097H56.3679V66.2054H56.3762Z" fill="#6301CB"/>
<path d="M213.376 66.2054C213.376 81.8988 205.892 89.2931 192.835 89.2931C179.779 89.2931 172.207 81.8988 172.207 66.2054V29.7097H167V66.4833C167 84.7311 176.771 94.0374 192.74 94.0374C208.709 94.0374 218.575 84.7311 218.575 66.4833V29.7097H213.368V66.2054H213.376Z" fill="#6301CB"/>
<path d="M99.9012 59.4746H76.2568V63.9499H99.9012V59.4746Z" fill="#6301CB"/>
<path d="M280.998 51.8217C280.998 38.2225 271.227 30.1946 255.163 30.1946H231.979V34.8521H255.163C268.491 34.8521 275.705 41.0548 275.705 51.8217C275.705 62.5885 268.491 68.7934 255.163 68.7934H231.979V94.071H237.186V73.3554H255.172C257.275 73.3554 259.187 73.1731 261.012 72.9908L276.076 94.071H282.005L266.125 71.808C275.529 68.9824 281.007 61.9527 281.007 51.8217H280.998Z" fill="#6301CB"/>
<path d="M300.436 94.6134H295.507C295.507 94.0696 295.507 93.1939 295.507 92.6416C295.507 80.2057 295.478 67.7614 295.514 55.3255C295.557 42.014 305.141 31.5184 318.536 30.0338C330.394 28.7171 342.021 37.3437 344.819 49.6473C345.278 51.6633 345.438 53.7884 345.453 55.8631C345.517 65.0483 345.482 74.2271 345.482 83.4123C345.482 84.0297 345.482 84.6555 345.482 85.1637C349.349 81.3019 353.196 77.4484 357.122 73.5279C358.459 74.9474 359.543 76.094 360.496 77.102C354.65 83.0238 348.739 89.0087 342.922 94.9011C337.119 89.0234 331.215 83.0364 325.327 77.0663C326.315 76.0583 327.405 74.9558 328.642 73.6895C332.51 77.6248 336.363 81.5455 340.493 85.7433C340.536 84.9873 340.58 84.6702 340.58 84.3468C340.58 74.8151 340.623 65.2835 340.574 55.7518C340.522 45.6469 334.05 37.4172 324.722 35.4538C311.873 32.7553 300.509 42.3752 300.451 56.0689C300.401 68.1016 300.436 80.1322 300.436 92.1649C300.436 92.8411 300.436 93.849 300.436 94.6071V94.6134Z" fill="#00F887"/>
<path d="M158.129 29.0496H115.135V33.7071H158.129V29.0496Z" fill="#6301CB"/>
<path d="M138.911 94L138.911 36L133.911 36L133.911 94L138.911 94Z" fill="#6301CB"/>
</svg>
