<svg id="SVGRoot" height="64" viewBox="0 0 24 24" width="64" xmlns="http://www.w3.org/2000/svg" xmlns:svg="http://www.w3.org/2000/svg">
  <g id="g1">
    <path id="rect6" fill="#ffffff" d="m5.5 3c-1.3747854 0-2.5 1.1252146-2.5 2.5v4c0 .647197.4204747 1.201946 1 1.410156v7.589844c0 1.374784 1.1252174 2.5 2.5 2.5h11c1.374784 0 2.5-1.125216 2.5-2.5v-7.589844c.579525-.20821 1-.762959 1-1.410156v-4c0-1.3747854-1.125214-2.5-2.5-2.5zm0 1h13c.834347 0 1.5.665653 1.5 1.5v4c0 .2820638-.217936.5-.5.5-.424536 0-.810142-.237472-1-.6171875l-.330078-.6601563c-.221265-.442528-.67516-.7226562-1.169922-.7226562s-.948657.2801282-1.169922.7226562l-.330078.6601563c-.189858.3797155-.575464.6171875-1 .6171875s-.810142-.237472-1-.6171875l-.330078-.6601563c-.221265-.442528-.67516-.7226562-1.169922-.7226562s-.948657.2801282-1.169922.7226562l-.330078.6601563c-.189858.3797155-.5754651.6171875-1 .6171875s-.8101423-.237472-1-.6171875l-.3300781-.6601563c-.2212641-.442528-.6751604-.7226562-1.1699219-.7226562s-.9486578.2801282-1.1699219.7226562l-.3300781.6601563c-.1898577.3797155-.5754651.6171875-1 .6171875-.2820638 0-.5-.2179362-.5-.5v-4c0-.834347.665653-1.5 1.5-1.5zm1.5 5c.1181028 0 .2245266.064288.2773438.1699219l.328125.6601562c.3583046.7166089 1.0933376 1.1699219 1.8945312 1.1699219.801193 0 1.536228-.453313 1.894531-1.1699219l.328125-.6601562c.052817-.1056343.159241-.1699219.277344-.1699219s.224527.064287.277344.1699219l.328125.6601562c.358303.7166089 1.093338 1.1699219 1.894531 1.1699219s1.536228-.453313 1.894531-1.1699219l.328125-.6601562c.052817-.1056343.159241-.1699219.277344-.1699219s.224527.064287.277344.1699219l.328125.6601562c.281947.5638949.797366.9641319 1.394531 1.1093749v7.560547c0 .834345-.665655 1.5-1.5 1.5h-2.5v-5.5c0-.822503-.677497-1.5-1.5-1.5h-3c-.8225032 0-1.5.677497-1.5 1.5v5.5h-2.5c-.8343454 0-1.5-.665655-1.5-1.5v-7.560547c.5971659-.145243 1.1125835-.54548 1.3945312-1.1093749l.328125-.6601562c.0528173-.1056343.159241-.1699219.2773438-.1699219zm3.5 5h3c.282064 0 .5.217936.5.5v5.5h-4v-5.5c0-.282064.217936-.5.5-.5z" stroke-linecap="round" stroke-linejoin="round"/>
  </g>
</svg>