

<svg width="64" height="64" viewBox="0 0 64 64" fill="none" xmlns="http://www.w3.org/2000/svg">
  <path d="m54.2 1.4h-44.6c-4.2 0-7.6 3.4-7.6 7.7v35.3c0 4.2 3.4 7.7 7.6 7.7h32.9v-.8c-.9-.1-1.7-.6-2.4-1.3-.1-.2-.3-.3-.4-.5h-30.1c-2.8 0-5.1-2.3-5.1-5.1v-35.3c0-2.8 2.3-5.1 5.1-5.1h44.5c2.8 0 5.1 2.3 5.1 5.1v21.2c.3.2.6.4.9.7.4.4.7.9.9 1.4l.8.3v-23.6c0-4.3-3.4-7.7-7.6-7.7z" fill="#ffffff"/>


  <path fill="#fff" d="m16.6 11.7h31.2v2.5h-31.2z" />
  <path fill="#fff" d="m16.6 21.4h13.4v2.5h-13.4z"/>
  <path fill="#fff" d="m55.5 52.1v6.2.4c-.1.9-.7 1.2-.9 1.4l-1.4.9c-.1.1-.3.2-.5.3l-.2.1c-.2.2-.4.4-.7.5-.5.4-1.1.5-1.6.5-.6 0-1.3-.3-1.8-.7l-2.4-1.4c-.3-.2-1-.6-1.1-1.5 0-.2 0-.4 0-.5v-.1-6.4h.7l1.9 1.8v4.7h.1l2.6 1.8s.1 0 .2-.1l.4-.3h.1c.1-.1.1-.1.2-.1l.2-.1c.2-.1.3-.2.5-.3l1.2-.8v-5.5l.9-.7z"/>
  <path fill="#fff" d="m34 38.2c-.3 0-.5 0-.8 0-.5 0-1 0-1.4-.1-1.4-.1-2.4-.5-3.2-1.1s-1.7-.8-2.7-.3c-.1.1-.2.1-.4.2-.2 0-.3.1-.5.1h-.1v-.1-.1c0-.1-.1-.2-.1-.4-.4-.9-1.2-1.4-2.2-1.4s-1.7.5-2.1 1.5c-.1.2-.1.4-.2.6l-.1.2c-.1.3-.2.3-.3.3s-.2-.1-.2-.2c-.1-.4-.2-.9-.1-1.4 0-.3.1-.6.1-.9.1-.7.2-1.4.1-2.2-.3-1.5-1.8-2.8-3.4-2.8-.3 0-.5 0-.8.1-1.6.4-2.7 1.8-2.7 3.5 0 1 .3 1.9.5 2.8l.1.3c.2.6.3 1.2.4 1.8.1.5 0 1-.3 1.3s-.5.4-.9.3c-.6-.1-1.1.2-1.3.8-.2.5.1 1.2.7 1.4.3.1.7.2 1.1.2h.3c1.9-.3 3.1-2 2.9-4-.1-.6-.2-1.3-.4-1.9-.1-.3-.2-.6-.2-1l-.1-.4c-.1-.5-.2-1.1-.2-1.6 0-.3.1-.6.3-.8s.5-.3.8-.3c.6 0 1 .5 1 1.2 0 .5-.1 1-.2 1.5v.1c-.2 1.2-.1 2 .2 2.9.4 1.1 1.4 1.7 2.5 1.7s2-.7 2.5-1.8c0-.1.1-.2.1-.3s.1-.2.1-.3c0 0 0 .1.1.2 0 .1 0 .1.1.2.4 1 1.1 1.5 2 1.5.3 0 .5 0 .8-.1s.6-.2.9-.4l.3-.1c.2-.1.2-.1.4.1.5.3.9.6 1.4.8 1.5.7 3.2.8 4.7.8h.7c.8 0 1.3-.4 1.3-1.1-.3-.8-.8-1.3-1.5-1.3z"/>
  <path fill="#fff" d="m49.9 52.4c-.6 0-1.3-.3-1.7-.7l-2.1-2.2-3-.1c-1.3 0-2.3-1.1-2.3-2.4l.1-3-2.1-2.1c-.8-.9-.8-2.4.2-3.3l2.2-2.1.1-3c0-1.3 1.1-2.3 2.3-2.3l3.1.1 2.1-2.1c.9-.9 2.5-.8 3.3.1l2.1 2.2 3 .1c1.3 0 2.3 1.1 2.3 2.4l-.1 3 2.1 2.1c.9.9.8 2.4-.1 3.3l-2.2 2.1-.1 3c0 1.3-1.1 2.3-2.3 2.3l-3.1-.1-2.1 2.1c-.6.4-1.1.6-1.7.6zm-6.3-18.7v3c0 .6-.3 1.2-.7 1.6l-2.2 2.1 2.1 2.1c.4.5.7 1.1.6 1.7l-.1 3h3c.6 0 1.2.3 1.6.7l2 2.1 2.1-2c.4-.4 1-.6 1.6-.6l3.1.1v-3c0-.6.3-1.2.7-1.6l2.2-2.1-2.1-2.1c-.4-.5-.7-1.1-.6-1.7l.1-3h-3c-.6 0-1.2-.3-1.6-.7l-2-2.3-2.1 2.1c-.4.4-1 .6-1.6.6z"/>
</svg>
